<?xml version="1.0" encoding="UTF-8"?>
<svg version="1.1" xmlns="http://www.w3.org/2000/svg" width="512" height="512">
<path d="M0 0 C0.91007813 0.37253906 1.82015625 0.74507813 2.7578125 1.12890625 C25.7518438 11.47261626 46.37765016 34.9992018 56.7109375 57.5390625 C60.23972656 67.01332645 61.55456766 75.56899834 61.5 85.6875 C61.49427979 86.92121338 61.48855957 88.15492676 61.48266602 89.42602539 C60.88519677 120.03375136 41.35381075 138.96552758 20.984375 159.3515625 C19.12251751 161.21985891 17.26080538 163.0883002 15.39923096 164.95687866 C11.50983985 168.8589896 7.61563186 172.75624974 3.71923828 176.65136719 C-0.75526369 181.12466802 -5.21848438 185.60900887 -9.67657113 190.09866393 C-14.0027077 194.45431451 -18.34005963 198.79863566 -22.68157196 203.13895798 C-24.51063962 204.97036941 -26.3365035 206.80498686 -28.15894318 208.64299393 C-51.42904949 232.09326315 -51.42904949 232.09326315 -65.8125 237.4375 C-66.99457031 237.88996094 -68.17664063 238.34242188 -69.39453125 238.80859375 C-87.03724239 244.63852538 -107.88803045 244.55185942 -125 237 C-125.91007812 236.62746094 -126.82015625 236.25492188 -127.7578125 235.87109375 C-139.63340635 230.5289379 -149.28529561 221.2038925 -158.3125 212.0625 C-159.71725586 210.67514648 -159.71725586 210.67514648 -161.15039062 209.25976562 C-177.18028135 193.16219063 -186.21398505 175.12500291 -186.5625 152.3125 C-186.58940918 151.24805664 -186.61631836 150.18361328 -186.64404297 149.08691406 C-186.6301183 146.29389486 -186.56647444 143.7352623 -186 141 C-183.578125 138.8359375 -183.578125 138.8359375 -181 138 C-180.401875 137.773125 -179.80375 137.54625 -179.1875 137.3125 C-170.94939178 136.1356274 -164.15152379 137.14174578 -157.36621094 142.22363281 C-149.05846299 149.03891438 -144.91205948 155.31132981 -142.0625 165.578125 C-140.43199237 170.82931869 -137.7559978 174.06842968 -134 178 C-133.4652002 178.57282715 -132.93040039 179.1456543 -132.37939453 179.73583984 C-118.34748895 194.79206086 -118.34748895 194.79206086 -99.3359375 201.37109375 C-83.17961219 201.64195916 -74.44079018 196.03406374 -63 185 C-57.13598377 179.29537198 -51.34860645 173.513905 -45.5625 167.73046875 C-43.90778559 166.07897473 -42.25299912 164.4275529 -40.59814453 162.77619934 C-37.15399467 159.33799619 -33.71187569 155.89777464 -30.27099609 152.45629883 C-25.86687302 148.05207351 -21.45587034 143.65480727 -17.0431366 139.25921154 C-13.63393307 135.86112443 -10.22928203 132.4585042 -6.82589722 129.05459023 C-5.20084053 127.43071093 -3.57416814 125.8084468 -1.9458313 124.18785667 C0.32475007 121.92708294 2.58889639 119.66004929 4.8515625 117.39135742 C5.51963425 116.72890518 6.18770599 116.06645294 6.87602234 115.38392639 C15.20350217 107.0000375 20.36709591 98.2229377 20.5625 86.125 C20.36519146 72.8229866 14.5337537 64.47014492 5.43310547 55.43603516 C4.05234644 54.05245345 2.71453723 52.62641311 1.37890625 51.19921875 C-3.61563484 45.9397566 -8.33011227 41.90920635 -15 39 C-15.70640625 38.68289062 -16.4128125 38.36578125 -17.140625 38.0390625 C-26.96135985 34.18848661 -36.71109474 35.2894143 -46.36468506 39.16239929 C-50.05410317 40.87795623 -52.74787868 43.16798346 -55.70800781 45.97583008 C-56.21945972 46.45778996 -56.73091164 46.93974985 -57.25786209 47.43631458 C-58.85047169 48.94570389 -60.4276856 50.46949789 -62 52 C-62.48589096 52.47244015 -62.97178192 52.94488029 -63.47239685 53.43163681 C-66.90316914 56.78182581 -70.29024408 60.17455093 -73.671875 63.57421875 C-74.7306742 64.63489044 -75.78969989 65.69533608 -76.84893799 66.75556946 C-79.59318619 69.50357755 -82.33441455 72.25457769 -85.07495117 75.00628662 C-87.88923884 77.83093149 -90.70647412 80.65263338 -93.5234375 83.47460938 C-99.01845843 88.98025196 -104.51028162 94.48906964 -110 100 C-110.4675621 99.59365829 -110.93512421 99.18731659 -111.41685486 98.7686615 C-112.34734398 97.96459618 -112.34734398 97.96459618 -113.29663086 97.14428711 C-113.90856796 96.6141954 -114.52050507 96.0841037 -115.15098572 95.53794861 C-124.03431526 88.14909043 -134.61492032 82.90844952 -145 78 C-145 77.34 -145 76.68 -145 76 C-143.69975281 74.72470093 -143.69975281 74.72470093 -141.79956055 73.17724609 C-136.21676516 68.42510143 -131.13404976 63.19787417 -125.99534035 57.97880936 C-124.16746035 56.1239066 -122.33491535 54.27373228 -120.50090027 52.42489624 C-115.29134736 47.17298581 -110.08448298 41.91851057 -104.89428711 36.64746094 C-101.70383014 33.40799008 -98.50327057 30.17879057 -95.29627037 26.95569992 C-94.08912978 25.73878119 -92.88561929 24.51824853 -91.68613625 23.29378128 C-82.15234837 13.56588333 -72.17229741 4.38706089 -59.1875 -0.4375 C-57.41439453 -1.11619141 -57.41439453 -1.11619141 -55.60546875 -1.80859375 C-37.96275761 -7.63852538 -17.11196955 -7.55185942 0 0 Z " fill="#FCA31D" transform="translate(390,92)"/>
<path d="M0 0 C1.01320312 0.42410156 2.02640625 0.84820312 3.0703125 1.28515625 C15.67377713 7.07114576 25.66660775 16.16959365 35.3125 25.9375 C36.24900391 26.86240234 37.18550781 27.78730469 38.15039062 28.74023438 C54.18028135 44.83780937 63.21398505 62.87499709 63.5625 85.6875 C63.60286377 87.28416504 63.60286377 87.28416504 63.64404297 88.91308594 C63.6301183 91.70610514 63.56647444 94.2647377 63 97 C60.578125 99.1640625 60.578125 99.1640625 58 100 C57.401875 100.226875 56.80375 100.45375 56.1875 100.6875 C47.94939178 101.8643726 41.15152379 100.85825422 34.36621094 95.77636719 C26.05846299 88.96108562 21.91205948 82.68867019 19.0625 72.421875 C17.43199237 67.17068131 14.7559978 63.93157032 11 60 C10.4652002 59.42717285 9.93040039 58.8543457 9.37939453 58.26416016 C-4.65251105 43.20793914 -4.65251105 43.20793914 -23.6640625 36.62890625 C-39.82407157 36.35797908 -48.55306027 41.97007292 -60 53 C-65.85093372 58.68248057 -71.62825259 64.43885782 -77.40234375 70.19921875 C-78.2125403 71.00658792 -79.02273685 71.8139571 -79.85748482 72.64579201 C-84.13236115 76.90579505 -88.40444675 81.16857238 -92.67407227 85.43383789 C-97.06742112 89.82167182 -101.46999887 94.2001242 -105.87473202 98.57652569 C-109.28132722 101.96447606 -112.6811754 105.35913643 -116.07922554 108.75565529 C-117.69977755 110.37319225 -119.32281653 111.98824177 -120.94843864 113.60068321 C-123.21881124 115.85393216 -125.47945467 118.11653311 -127.73803711 120.3815918 C-128.40251358 121.03685349 -129.06699005 121.69211517 -129.75160217 122.36723328 C-138.10188403 130.79244991 -143.24981882 139.71319319 -143.5 151.75 C-143.38073104 164.99191227 -137.56648164 173.49736643 -128.43310547 182.56396484 C-127.05234644 183.94754655 -125.71453723 185.37358689 -124.37890625 186.80078125 C-119.38436516 192.0602434 -114.66988773 196.09079365 -108 199 C-106.94039062 199.47566406 -106.94039062 199.47566406 -105.859375 199.9609375 C-96.03864015 203.81151339 -86.28890526 202.7105857 -76.63531494 198.83760071 C-72.94589683 197.12204377 -70.25212132 194.83201654 -67.29199219 192.02416992 C-66.52481432 191.30123009 -66.52481432 191.30123009 -65.74213791 190.56368542 C-64.14952831 189.05429611 -62.5723144 187.53050211 -61 186 C-60.51410904 185.52755985 -60.02821808 185.05511971 -59.52760315 184.56836319 C-56.09683086 181.21817419 -52.70975592 177.82544907 -49.328125 174.42578125 C-48.2693258 173.36510956 -47.21030011 172.30466392 -46.15106201 171.24443054 C-43.40681381 168.49642245 -40.66558545 165.74542231 -37.92504883 162.99371338 C-35.11076116 160.16906851 -32.29352588 157.34736662 -29.4765625 154.52539062 C-23.98154157 149.01974804 -18.48971838 143.51093036 -13 138 C-12.5324379 138.40634171 -12.06487579 138.81268341 -11.58314514 139.2313385 C-10.96281906 139.76738205 -10.34249298 140.3034256 -9.70336914 140.85571289 C-9.09143204 141.3858046 -8.47949493 141.9158963 -7.84901428 142.46205139 C1.03431526 149.85090957 11.61492032 155.09155048 22 160 C18.1987358 164.53210639 14.28023801 168.87475935 10.10913086 173.06787109 C9.55367584 173.62989731 8.99822083 174.19192352 8.42593384 174.77098083 C6.60843366 176.60799721 4.78711136 178.44115079 2.96484375 180.2734375 C2.33565096 180.90670582 1.70645817 181.53997414 1.05819893 182.1924324 C-2.27358569 185.54498685 -5.60857524 188.8943164 -8.94604492 192.24121094 C-12.3611902 195.66739438 -15.76449226 199.10509352 -19.16523075 202.54556847 C-21.81049213 205.21718765 -24.46480486 207.87967965 -27.12148857 210.53993607 C-28.37854836 211.80181329 -29.63227973 213.06701669 -30.88234138 214.33582687 C-40.57632852 224.16609689 -50.6459339 233.54540212 -63.8125 238.4375 C-64.99457031 238.88996094 -66.17664063 239.34242188 -67.39453125 239.80859375 C-86.84783072 246.2368238 -107.99744243 244.90620527 -126.49609375 236.390625 C-150.53356913 224.27462585 -173.05270736 200.16525824 -181.81152344 174.63452148 C-184.10160481 167.16861115 -184.54195404 160.09205298 -184.5 152.3125 C-184.49427979 151.07878662 -184.48855957 149.84507324 -184.48266602 148.57397461 C-183.88519677 117.96624864 -164.35381075 99.03447242 -143.984375 78.6484375 C-142.12251751 76.78014109 -140.26080538 74.9116998 -138.39923096 73.04312134 C-134.50983985 69.1410104 -130.61563186 65.24375026 -126.71923828 61.34863281 C-122.24473631 56.87533198 -117.78151562 52.39099113 -113.32342887 47.90133607 C-108.9972923 43.54568549 -104.65994037 39.20136434 -100.31842804 34.86104202 C-98.48936038 33.02963059 -96.6634965 31.19501314 -94.84105682 29.35700607 C-71.57095051 5.90673685 -71.57095051 5.90673685 -57.1875 0.5625 C-55.41439453 -0.11619141 -55.41439453 -0.11619141 -53.60546875 -0.80859375 C-37.19320767 -6.23193029 -16.07738181 -6.99300753 0 0 Z " fill="#FFFFFF" transform="translate(245,182)"/>
</svg>
